<?xml version="1.0" encoding="utf-8"?>
<!-- Generator: Adobe Illustrator 23.0.4, SVG Export Plug-In . SVG Version: 6.00 Build 0)  -->
<svg version="1.1" id="Capa_1" xmlns="http://www.w3.org/2000/svg" xmlns:xlink="http://www.w3.org/1999/xlink" x="0px" y="0px"
	 viewBox="0 0 278.11 43.04" style="enable-background:new 0 0 278.11 43.04;" xml:space="preserve">
<style type="text/css">
	.st0{fill:#FFFFFF;}
	.st1{fill:#A1BC31;}
	.st2{fill:#211915;}
	.st3{fill:#4A72B0;}
	.st4{fill:#BF3773;}
	.st5{fill:#DA9500;}
</style>
<g>
	<circle class="st0" cx="21.52" cy="21.52" r="21.52"/>
	<g>
		<g>
			<path class="st0" d="M14.69,9.04c0.21,0.05,0.41,0.09,0.6,0.16c0.28,0.09,0.49,0.27,0.61,0.54c0.13,0.27,0.18,0.56,0.17,0.86
				c-0.01,0.37-0.03,0.73-0.06,1.1c-0.05,0.64-0.13,1.28-0.27,1.91c-0.05,0.23-0.14,0.46-0.22,0.69c-0.01,0.02-0.04,0.05-0.06,0.05
				c-0.06,0.01-0.11,0-0.17,0c0-0.03,0-0.06,0-0.08c0-0.48,0-0.95,0-1.43c0-0.69,0-1.38,0-2.07c0-0.05-0.01-0.11-0.02-0.16
				c-0.04-0.14-0.15-0.22-0.29-0.21c-0.14,0.01-0.25,0.11-0.26,0.24c-0.03,0.28-0.05,0.57-0.06,0.86c-0.02,0.3-0.04,0.61-0.06,0.91
				c-0.03,0.4-0.05,0.79-0.08,1.19c-0.01,0.18-0.02,0.36-0.05,0.54c-0.02,0.13-0.14,0.22-0.27,0.22c-0.13,0-0.26-0.1-0.28-0.23
				c-0.01-0.09-0.02-0.18-0.03-0.27c-0.03-0.48-0.06-0.95-0.08-1.43c-0.02-0.39-0.04-0.79-0.07-1.18c-0.01-0.21-0.03-0.43-0.05-0.64
				c-0.02-0.14-0.13-0.23-0.28-0.23c-0.14,0-0.25,0.1-0.27,0.24c-0.01,0.04-0.01,0.09-0.01,0.13c0,1.16,0,2.32,0,3.47
				c0,0.03,0,0.07,0,0.1c-0.18,0.03-0.19,0.03-0.25-0.12c-0.04-0.09-0.07-0.17-0.09-0.26c-0.18-0.6-0.25-1.23-0.32-1.85
				c-0.04-0.34-0.07-0.68-0.09-1.02c-0.02-0.31-0.03-0.62,0.02-0.93c0.1-0.55,0.42-0.9,0.97-1.01c0.13-0.03,0.25-0.05,0.38-0.07
				c0-0.4,0-0.8,0-1.2c-1.82,0.2-3.52,1.86-3.39,4.12c0.12,1.99,1.82,3.74,4.1,3.62c2-0.11,3.76-1.83,3.63-4.11
				c-0.11-1.99-1.69-3.45-3.39-3.63C14.69,8.26,14.69,8.66,14.69,9.04z"/>
			<path d="M14.69,9.04c0-0.38,0-0.78,0-1.18c1.7,0.18,3.28,1.64,3.39,3.63c0.12,2.28-1.64,4-3.63,4.11
				c-2.27,0.12-3.98-1.63-4.1-3.62c-0.14-2.27,1.56-3.92,3.39-4.12c0,0.4,0,0.8,0,1.2c-0.12,0.02-0.25,0.05-0.38,0.07
				c-0.55,0.12-0.87,0.46-0.97,1.01c-0.06,0.31-0.04,0.62-0.02,0.93c0.02,0.34,0.05,0.68,0.09,1.02c0.07,0.62,0.14,1.25,0.32,1.85
				c0.03,0.09,0.06,0.18,0.09,0.26c0.06,0.15,0.07,0.15,0.25,0.12c0-0.03,0-0.07,0-0.1c0-1.16,0-2.32,0-3.47
				c0-0.04,0-0.09,0.01-0.13c0.02-0.14,0.13-0.24,0.27-0.24c0.14,0,0.26,0.09,0.28,0.23c0.02,0.21,0.04,0.43,0.05,0.64
				c0.02,0.39,0.05,0.79,0.07,1.18c0.03,0.48,0.05,0.95,0.08,1.43c0.01,0.09,0.01,0.18,0.03,0.27c0.02,0.12,0.15,0.23,0.28,0.23
				c0.13,0,0.26-0.09,0.27-0.22c0.02-0.18,0.03-0.36,0.05-0.54c0.03-0.4,0.05-0.79,0.08-1.19c0.02-0.3,0.04-0.61,0.06-0.91
				c0.02-0.29,0.04-0.57,0.06-0.86c0.01-0.14,0.12-0.23,0.26-0.24c0.14-0.01,0.25,0.07,0.29,0.21c0.01,0.05,0.02,0.11,0.02,0.16
				c0,0.69,0,1.38,0,2.07c0,0.48,0,0.95,0,1.43c0,0.02,0,0.05,0,0.08c0.06,0,0.12,0.01,0.17,0c0.02,0,0.06-0.03,0.06-0.05
				c0.08-0.23,0.17-0.45,0.22-0.69c0.14-0.63,0.22-1.27,0.27-1.91c0.03-0.36,0.05-0.73,0.06-1.1c0.01-0.3-0.05-0.59-0.17-0.86
				c-0.12-0.26-0.33-0.45-0.61-0.54C15.1,9.13,14.9,9.09,14.69,9.04z"/>
		</g>
		<g>
			<path class="st1" d="M17.24,20.96h8.04v1.32h-6.7v6.15h4.37v1.32h-4.37v3.39h7v1.32h-8.34V20.96z"/>
		</g>
		<g>
			<path class="st2" d="M28.52,32.98h-0.48c0.01-0.28,0.1-0.5,0.26-0.66c0.16-0.16,0.37-0.24,0.62-0.24c0.16,0,0.29,0.03,0.41,0.1
				c0.12,0.07,0.22,0.16,0.29,0.29c0.07,0.12,0.11,0.25,0.11,0.38c0,0.15-0.04,0.32-0.13,0.49c-0.09,0.18-0.25,0.38-0.48,0.63
				l-0.29,0.3h0.92v0.45h-1.79v-0.23l0.8-0.81c0.19-0.19,0.32-0.35,0.38-0.47c0.06-0.12,0.1-0.23,0.1-0.32c0-0.1-0.03-0.18-0.1-0.25
				c-0.07-0.06-0.15-0.1-0.25-0.1c-0.11,0-0.19,0.04-0.26,0.12S28.52,32.84,28.52,32.98z"/>
			<path class="st2" d="M31.09,32.08h0.49v1.66h0.23v0.45h-0.23v0.53H31.1V34.2h-1.12v-0.45L31.09,32.08z M31.1,33.74v-0.86
				l-0.59,0.86H31.1z"/>
			<path class="st2" d="M31.99,35.18l1.16-3.11h0.34l-1.16,3.11H31.99z"/>
			<path class="st2" d="M33.78,32.15h1.69v0.26l-1.16,2.38l-0.41-0.2l0.97-1.98h-1.08V32.15z"/>
		</g>
		<path class="st3" d="M30.13,17.59l-5.82,13.67h1.38l0.91-2.25h6.9l0.93,2.25h1.44L30.13,17.59z M27.02,27.86l3.02-7.73l3.02,7.73
			H27.02z"/>
		<g>
			<g>
				<path class="st4" d="M7.17,27.31l1.79-13.24h0.2l5.05,8.94l5.05-8.94h0.2l1.8,13.24h-1.22l-1.23-9.47l-4.41,7.19h-0.32
					L9.6,17.77l-1.23,9.54H7.17z"/>
			</g>
		</g>
		<g>
			<path class="st5" d="M21.92,24.01l1.2-0.75c0.97,1.39,2.03,2.04,3.19,1.97c0.49-0.03,0.95-0.16,1.37-0.4
				c0.42-0.23,0.73-0.53,0.93-0.89c0.2-0.36,0.29-0.73,0.27-1.12c-0.03-0.44-0.22-0.86-0.58-1.26c-0.5-0.55-1.38-1.2-2.65-1.94
				c-1.28-0.75-2.08-1.29-2.4-1.64c-0.56-0.58-0.86-1.23-0.91-1.95c-0.04-0.57,0.08-1.1,0.36-1.59c0.28-0.49,0.68-0.89,1.22-1.19
				c0.54-0.31,1.13-0.48,1.79-0.52c0.69-0.05,1.35,0.07,1.97,0.33c0.62,0.27,1.3,0.79,2.02,1.56l-1.15,0.89
				c-0.6-0.62-1.09-1.02-1.5-1.2c-0.4-0.18-0.83-0.26-1.29-0.23c-0.59,0.04-1.07,0.23-1.42,0.58c-0.36,0.34-0.52,0.75-0.49,1.22
				c0.02,0.28,0.1,0.56,0.25,0.81c0.15,0.26,0.41,0.53,0.79,0.83c0.2,0.15,0.86,0.55,1.98,1.19c1.33,0.75,2.25,1.44,2.76,2.06
				c0.51,0.62,0.79,1.26,0.84,1.92c0.06,0.95-0.29,1.8-1.05,2.55c-0.76,0.75-1.72,1.17-2.88,1.24c-0.89,0.06-1.71-0.1-2.47-0.48
				C23.31,25.64,22.6,24.97,21.92,24.01z"/>
		</g>
		<polygon class="st3" points="24.31,31.27 25.69,31.27 28.88,22.83 28.3,21.57 		"/>
	</g>
</g>
<g>
	<path class="st2" d="M62.53,27.97v-6.22h-2.25v6.22h-1.83V14.27h1.83v5.82h2.25v-5.82h1.83v13.71H62.53z"/>
	<path class="st2" d="M67.81,27.97h-1.83V16.61c0-1.57,0.73-2.35,2.2-2.35h1.37c1.46,0,2.2,0.78,2.2,2.35v11.36h-1.83v-5.02h-2.1
		V27.97z M69.91,21.29v-4.56c0-0.54-0.27-0.8-0.8-0.8h-0.5c-0.53,0-0.8,0.27-0.8,0.8v4.56H69.91z"/>
	<path class="st2" d="M76.88,17.95v-1.2c0-0.55-0.27-0.82-0.8-0.82h-0.29c-0.52,0-0.78,0.27-0.78,0.82v2.27
		c0,0.25,0.05,0.43,0.15,0.52c0.1,0.09,0.27,0.2,0.5,0.34l1.74,0.94c0.38,0.22,0.65,0.38,0.81,0.51c0.16,0.12,0.28,0.27,0.37,0.44
		c0.09,0.17,0.13,0.5,0.13,0.98v2.92c0,1.54-0.74,2.31-2.21,2.31h-1.13c-1.46,0-2.2-0.84-2.2-2.52v-0.69h1.83v0.74
		c0,0.53,0.27,0.8,0.82,0.8h0.32c0.48,0,0.73-0.27,0.73-0.8v-2.33c0-0.25-0.05-0.43-0.15-0.52s-0.27-0.2-0.5-0.34l-1.74-0.97
		c-0.38-0.2-0.66-0.38-0.83-0.52c-0.17-0.14-0.3-0.32-0.37-0.54c-0.08-0.22-0.11-0.51-0.11-0.87v-2.81c0-1.57,0.73-2.35,2.2-2.35
		h1.15c1.46,0,2.2,0.78,2.2,2.35v1.34H76.88z"/>
	<path class="st2" d="M88.78,24.77v0.88c0,1.55-0.73,2.33-2.2,2.33H85.4c-1.46,0-2.2-0.78-2.2-2.33V16.6c0-1.55,0.73-2.33,2.2-2.33
		h1.18c1.46,0,2.2,0.78,2.2,2.33v1.55h-1.83v-1.41c0-0.54-0.27-0.8-0.82-0.8h-0.36c-0.48,0-0.73,0.27-0.73,0.8v8.78
		c0,0.53,0.24,0.8,0.73,0.8h0.46c0.48,0,0.73-0.27,0.73-0.8v-0.74H88.78z"/>
	<path class="st2" d="M94.56,27.97h-4.35V14.27h1.83v12.05h2.52V27.97z"/>
	<path class="st2" d="M95.61,27.97V14.27h1.83v13.71H95.61z"/>
	<path class="st2" d="M104.64,24.77v0.88c0,1.55-0.73,2.33-2.2,2.33h-1.18c-1.46,0-2.2-0.78-2.2-2.33V16.6
		c0-1.55,0.73-2.33,2.2-2.33h1.18c1.46,0,2.2,0.78,2.2,2.33v1.55h-1.83v-1.41c0-0.54-0.27-0.8-0.82-0.8h-0.36
		c-0.48,0-0.73,0.27-0.73,0.8v8.78c0,0.53,0.24,0.8,0.73,0.8h0.46c0.48,0,0.73-0.27,0.73-0.8v-0.74H104.64z"/>
	<path class="st2" d="M107.91,27.97h-1.83V14.27h1.83V27.97z M112.13,27.97h-1.83l-2.29-6.7v-0.12l1.91-6.89h1.68l-1.93,6.82
		L112.13,27.97z"/>
	<path class="st2" d="M116.23,14.27h3.34c1.48,0,2.21,0.78,2.21,2.35v4.07c0,1.55-0.73,2.33-2.2,2.33h-1.53v4.96h-1.83V14.27z
		 M118.06,21.35h1.16c0.48,0,0.73-0.27,0.73-0.8v-3.82c0-0.54-0.27-0.8-0.82-0.8h-1.07V21.35z"/>
	<path class="st2" d="M124.97,27.97h-1.83V16.61c0-1.57,0.73-2.35,2.2-2.35h1.37c1.46,0,2.2,0.78,2.2,2.35v11.36h-1.83v-5.02h-2.1
		V27.97z M127.07,21.29v-4.56c0-0.54-0.27-0.8-0.8-0.8h-0.5c-0.53,0-0.8,0.27-0.8,0.8v4.56H127.07z"/>
	<path class="st2" d="M130.53,14.27h3.59c1.4,0,2.1,0.78,2.1,2.35v3.38c0,1.2-0.36,1.95-1.09,2.27l1.28,5.71h-1.74l-1.2-5.54h-1.11
		v5.54h-1.83V14.27z M132.36,20.87h1.2c0.55,0,0.82-0.33,0.82-0.99v-2.96c0-0.66-0.27-0.99-0.82-0.99h-1.2V20.87z"/>
	<path class="st2" d="M139.48,27.97h-1.83V16.61c0-1.57,0.73-2.35,2.2-2.35h1.37c1.46,0,2.2,0.78,2.2,2.35v11.36h-1.83v-5.02h-2.1
		V27.97z M141.58,21.29v-4.56c0-0.54-0.27-0.8-0.8-0.8h-0.5c-0.53,0-0.8,0.27-0.8,0.8v4.56H141.58z"/>
	<path class="st2" d="M148.09,14.27h3.59c1.4,0,2.1,0.78,2.1,2.35v3.38c0,1.2-0.36,1.95-1.09,2.27l1.28,5.71h-1.74l-1.2-5.54h-1.11
		v5.54h-1.83V14.27z M149.93,20.87h1.2c0.55,0,0.82-0.33,0.82-0.99v-2.96c0-0.66-0.27-0.99-0.82-0.99h-1.2V20.87z"/>
	<path class="st2" d="M155.31,27.97V14.27h4.54v1.66h-2.71v4.16h2.41v1.66h-2.41v4.56h2.71v1.66H155.31z"/>
	<path class="st2" d="M164.68,17.95v-1.2c0-0.55-0.27-0.82-0.8-0.82h-0.29c-0.52,0-0.78,0.27-0.78,0.82v2.27
		c0,0.25,0.05,0.43,0.15,0.52c0.1,0.09,0.27,0.2,0.5,0.34l1.74,0.94c0.38,0.22,0.65,0.38,0.81,0.51c0.16,0.12,0.28,0.27,0.37,0.44
		c0.09,0.17,0.13,0.5,0.13,0.98v2.92c0,1.54-0.74,2.31-2.21,2.31h-1.13c-1.46,0-2.2-0.84-2.2-2.52v-0.69h1.83v0.74
		c0,0.53,0.27,0.8,0.82,0.8h0.32c0.48,0,0.73-0.27,0.73-0.8v-2.33c0-0.25-0.05-0.43-0.15-0.52s-0.27-0.2-0.5-0.34l-1.74-0.97
		c-0.38-0.2-0.66-0.38-0.83-0.52c-0.17-0.14-0.3-0.32-0.37-0.54c-0.08-0.22-0.11-0.51-0.11-0.87v-2.81c0-1.57,0.73-2.35,2.2-2.35
		h1.15c1.46,0,2.2,0.78,2.2,2.35v1.34H164.68z"/>
	<path class="st2" d="M168.05,27.97V14.27h4.54v1.66h-2.71v4.16h2.41v1.66h-2.41v4.56h2.71v1.66H168.05z"/>
	<path class="st2" d="M173.91,14.27h3.59c1.4,0,2.1,0.78,2.1,2.35v3.38c0,1.2-0.36,1.95-1.09,2.27l1.28,5.71h-1.74l-1.2-5.54h-1.11
		v5.54h-1.83V14.27z M175.74,20.87h1.2c0.55,0,0.82-0.33,0.82-0.99v-2.96c0-0.66-0.27-0.99-0.82-0.99h-1.2V20.87z"/>
	<path class="st2" d="M187.06,14.27l-2.21,13.71h-2.18l-2.21-13.71h1.81l1.49,10.46l1.49-10.46H187.06z"/>
	<path class="st2" d="M189.66,27.97h-1.83V16.61c0-1.57,0.73-2.35,2.2-2.35h1.37c1.46,0,2.2,0.78,2.2,2.35v11.36h-1.83v-5.02h-2.1
		V27.97z M191.76,21.29v-4.56c0-0.54-0.27-0.8-0.8-0.8h-0.5c-0.53,0-0.8,0.27-0.8,0.8v4.56H191.76z"/>
	<path class="st2" d="M198.73,17.95v-1.2c0-0.55-0.27-0.82-0.8-0.82h-0.29c-0.52,0-0.78,0.27-0.78,0.82v2.27
		c0,0.25,0.05,0.43,0.15,0.52c0.1,0.09,0.27,0.2,0.5,0.34l1.74,0.94c0.38,0.22,0.65,0.38,0.81,0.51c0.16,0.12,0.28,0.27,0.37,0.44
		c0.09,0.17,0.13,0.5,0.13,0.98v2.92c0,1.54-0.74,2.31-2.21,2.31h-1.13c-1.46,0-2.2-0.84-2.2-2.52v-0.69h1.83v0.74
		c0,0.53,0.27,0.8,0.82,0.8H198c0.48,0,0.73-0.27,0.73-0.8v-2.33c0-0.25-0.05-0.43-0.15-0.52s-0.27-0.2-0.5-0.34l-1.74-0.97
		c-0.38-0.2-0.66-0.38-0.83-0.52c-0.17-0.14-0.3-0.32-0.37-0.54c-0.08-0.22-0.11-0.51-0.11-0.87v-2.81c0-1.57,0.73-2.35,2.2-2.35
		h1.15c1.46,0,2.2,0.78,2.2,2.35v1.34H198.73z"/>
	<path class="st2" d="M205.14,27.97V14.27h4.54v1.66h-2.71v4.16h2.41v1.66h-2.41v4.56h2.71v1.66H205.14z"/>
	<path class="st2" d="M214.8,20.89v-6.63h1.83v13.71h-1.83v-2.73L212.83,19v8.97H211V14.27h1.83L214.8,20.89z"/>
	<path class="st2" d="M225.13,22.32l1.7-8.06h2.02v13.71h-1.83l0.19-8.97l-1.37,6.49h-1.41L223.05,19l0.19,8.97h-1.83V14.27h2.02
		L225.13,22.32z"/>
	<path class="st2" d="M230.57,27.97V14.27h4.54v1.66h-2.71v4.16h2.41v1.66h-2.41v4.56h2.71v1.66H230.57z"/>
	<path class="st2" d="M239.94,17.95v-1.2c0-0.55-0.27-0.82-0.8-0.82h-0.29c-0.52,0-0.78,0.27-0.78,0.82v2.27
		c0,0.25,0.05,0.43,0.15,0.52c0.1,0.09,0.27,0.2,0.5,0.34l1.74,0.94c0.38,0.22,0.65,0.38,0.81,0.51c0.16,0.12,0.28,0.27,0.37,0.44
		c0.09,0.17,0.13,0.5,0.13,0.98v2.92c0,1.54-0.74,2.31-2.21,2.31h-1.13c-1.46,0-2.2-0.84-2.2-2.52v-0.69h1.83v0.74
		c0,0.53,0.27,0.8,0.82,0.8h0.32c0.48,0,0.73-0.27,0.73-0.8v-2.33c0-0.25-0.05-0.43-0.15-0.52s-0.27-0.2-0.5-0.34l-1.74-0.97
		c-0.38-0.2-0.66-0.38-0.83-0.52c-0.17-0.14-0.3-0.32-0.37-0.54c-0.08-0.22-0.11-0.51-0.11-0.87v-2.81c0-1.57,0.73-2.35,2.2-2.35
		h1.15c1.46,0,2.2,0.78,2.2,2.35v1.34H239.94z"/>
	<path class="st2" d="M245.04,27.97h-1.83V16.61c0-1.57,0.73-2.35,2.2-2.35h1.37c1.46,0,2.2,0.78,2.2,2.35v11.36h-1.83v-5.02h-2.1
		V27.97z M247.14,21.29v-4.56c0-0.54-0.27-0.8-0.8-0.8h-0.5c-0.53,0-0.8,0.27-0.8,0.8v4.56H247.14z"/>
	<path class="st2" d="M258.75,26.33v1.64h-4.93v-4.22c0-0.23,0.02-0.42,0.06-0.57c0.04-0.15,0.1-0.3,0.2-0.43
		c0.1-0.13,0.26-0.32,0.51-0.56l1.85-1.78c0.14-0.14,0.25-0.26,0.33-0.36c0.08-0.1,0.14-0.19,0.17-0.26
		c0.03-0.07,0.05-0.14,0.06-0.22c0.01-0.08,0.01-0.18,0.01-0.31v-2.54c0-0.54-0.26-0.8-0.78-0.8h-0.11c-0.52,0-0.78,0.27-0.78,0.8
		v1.41h-1.83v-1.53c0-1.57,0.73-2.35,2.2-2.35h0.95c1.46,0,2.2,0.78,2.2,2.35v3.28c0,0.25-0.04,0.48-0.1,0.67
		c-0.07,0.19-0.25,0.43-0.54,0.71l-2.02,1.95c-0.25,0.24-0.4,0.41-0.44,0.5c-0.04,0.09-0.06,0.18-0.07,0.27
		c-0.01,0.09-0.01,0.21-0.01,0.36v1.99H258.75z"/>
	<path class="st2" d="M266.56,24.77h-1.05v3.21h-1.79v-3.21h-3.21l-0.38-1.55l3.55-8.95h1.83v8.95h1.05V24.77z M263.9,17.91h-0.09
		l-1.74,5.31h1.7L263.9,17.91z"/>
	<path class="st2" d="M272.32,13.31l-4.2,15.62h-1.28l4.18-15.62H272.32z"/>
	<path class="st2" d="M273.57,27.97l2.37-12.01h-3.42v-1.7h4.79l0.52,0.99l-2.44,12.72H273.57z"/>
</g>
</svg>
