<?xml version="1.0" encoding="utf-8"?>
<!-- Generator: Adobe Illustrator 23.0.4, SVG Export Plug-In . SVG Version: 6.00 Build 0)  -->
<svg version="1.1" id="Capa_1" xmlns="http://www.w3.org/2000/svg" xmlns:xlink="http://www.w3.org/1999/xlink" x="0px" y="0px"
	 viewBox="0 0 78.02 78.02" style="enable-background:new 0 0 78.02 78.02;" xml:space="preserve">
<style type="text/css">
	.st0{fill:#202121;}
	.st1{fill:#FFFFFF;}
</style>
<g>
	<circle class="st0" cx="39.52" cy="38.76" r="39.01"/>
	<g>
		<path class="st1" d="M37.28,48.76c0,0.47,0.04,0.76,0.04,0.76h9.69v4.23H31.95c0,0-0.55-0.59-0.55-3.72
			c0-3.85,1.9-7.62,4.02-10.03l5.29-6.05c1.23-1.44,1.57-2.33,1.57-3.64c0-1.35-1.1-2.33-2.41-2.33c-1.27,0-2.37,1.14-2.37,3.22
			v1.23H32.2v-2.07c0-3.94,3.17-6.6,7.66-6.6c4.53,0,7.79,2.58,7.79,6.6c0,4.06-1.23,4.99-4.02,8.29c0,0-1.23,1.23-3.68,3.81
			C37.57,44.91,37.28,47.49,37.28,48.76z"/>
	</g>
</g>
</svg>
