<?xml version="1.0" encoding="utf-8"?>
<!-- Generator: Adobe Illustrator 23.0.4, SVG Export Plug-In . SVG Version: 6.00 Build 0)  -->
<svg version="1.1" id="Capa_1" xmlns="http://www.w3.org/2000/svg" xmlns:xlink="http://www.w3.org/1999/xlink" x="0px" y="0px"
	 viewBox="0 0 196.26 27.23" style="enable-background:new 0 0 196.26 27.23;" xml:space="preserve">
<style type="text/css">
	.st0{fill:#202121;}
	.st1{fill:#C95F52;}
	.st2{fill:#FFFFFF;}
</style>
<g>
	<g>
		<path class="st0" d="M37.3,18.39v-12h5.62v1.97h-2.68v2.68h2v2.04h-2v3.35h2.71v1.96H37.3z"/>
		<path class="st0" d="M44.11,18.39v-12h2.08l2.19,5.14V6.39h2.42v12h-2l-2.18-5.64v5.64H44.11z"/>
		<path class="st0" d="M56.12,18.58c-0.68,0-1.27-0.09-1.75-0.27c-0.48-0.18-0.87-0.45-1.15-0.81c-0.28-0.36-0.49-0.77-0.62-1.25
			c-0.13-0.48-0.19-1.04-0.19-1.69v-4.33c0-0.65,0.06-1.22,0.19-1.69c0.13-0.48,0.33-0.89,0.62-1.25c0.28-0.36,0.67-0.63,1.15-0.81
			c0.48-0.18,1.07-0.27,1.75-0.27c0.55,0,1.03,0.06,1.44,0.17c0.42,0.11,0.76,0.27,1.02,0.47c0.27,0.2,0.49,0.45,0.66,0.75
			c0.17,0.3,0.29,0.61,0.36,0.95s0.1,0.71,0.1,1.13v1.08h-2.89V9.43c0-0.17,0-0.31-0.01-0.42c-0.01-0.1-0.04-0.22-0.08-0.36
			c-0.04-0.14-0.11-0.24-0.21-0.31c-0.1-0.07-0.23-0.1-0.39-0.1c-0.13,0-0.24,0.03-0.34,0.08c-0.09,0.05-0.17,0.12-0.21,0.19
			c-0.05,0.07-0.09,0.17-0.11,0.29c-0.03,0.12-0.04,0.23-0.05,0.32s-0.01,0.2-0.01,0.33v5.91c0,0.13,0,0.24,0.01,0.33
			c0.01,0.09,0.03,0.2,0.05,0.32c0.03,0.12,0.07,0.21,0.12,0.29c0.05,0.07,0.12,0.14,0.21,0.19c0.09,0.05,0.2,0.08,0.33,0.08
			c0.16,0,0.29-0.04,0.39-0.1c0.1-0.07,0.17-0.17,0.21-0.31c0.04-0.14,0.07-0.26,0.08-0.37c0.01-0.1,0.01-0.24,0.01-0.42v-1.38h2.89
			v1.07c0,0.42-0.04,0.8-0.1,1.14c-0.07,0.34-0.19,0.66-0.36,0.97c-0.17,0.3-0.39,0.56-0.66,0.76c-0.27,0.21-0.61,0.37-1.02,0.49
			C57.15,18.52,56.66,18.58,56.12,18.58z"/>
		<path class="st0" d="M64.68,18.58c-0.69,0-1.28-0.08-1.75-0.24c-0.47-0.16-0.85-0.4-1.13-0.73c-0.28-0.33-0.48-0.72-0.6-1.18
			c-0.12-0.46-0.18-1.01-0.18-1.66V6.39h2.92v8.87c0,0.16,0.01,0.3,0.02,0.42c0.01,0.12,0.04,0.24,0.09,0.38
			c0.04,0.14,0.12,0.24,0.22,0.32c0.11,0.07,0.24,0.11,0.4,0.11s0.29-0.04,0.4-0.11c0.11-0.07,0.18-0.18,0.22-0.32
			c0.04-0.14,0.07-0.26,0.08-0.38c0.01-0.12,0.02-0.26,0.02-0.42V6.39h2.93v8.37c0,0.65-0.06,1.21-0.18,1.66
			c-0.12,0.46-0.32,0.85-0.6,1.18c-0.28,0.33-0.65,0.57-1.13,0.73C65.95,18.5,65.37,18.58,64.68,18.58z"/>
		<path class="st0" d="M70,18.39v-12h5.62v1.97h-2.68v2.68h2v2.04h-2v3.35h2.71v1.96H70z"/>
		<path class="st0" d="M76.81,18.39v-12h2.08l2.19,5.14V6.39h2.42v12h-2l-2.18-5.64v5.64H76.81z"/>
		<path class="st0" d="M86.33,18.39V8.56h-1.75V6.39h6.43v2.17h-1.74v9.83H86.33z"/>
		<path class="st0" d="M92.08,18.39v-12h3.58c0.51,0,0.96,0.03,1.36,0.08c0.39,0.05,0.77,0.15,1.13,0.29
			c0.36,0.14,0.65,0.33,0.88,0.56c0.23,0.23,0.41,0.54,0.55,0.91c0.14,0.37,0.2,0.81,0.2,1.32c0,0.81-0.1,1.45-0.3,1.93
			c-0.2,0.48-0.59,0.87-1.17,1.17l1.64,5.75h-3.08l-1.24-5.3h-0.61v5.3H92.08z M95.02,11.47h0.77c0.48,0,0.82-0.14,1-0.42
			c0.19-0.28,0.28-0.67,0.28-1.18c0-0.49-0.09-0.87-0.26-1.14c-0.18-0.27-0.47-0.4-0.87-0.4h-0.91V11.47z"/>
		<path class="st0" d="M100.79,18.39l2.18-12h3.42l2.16,12h-2.68l-0.38-2.4h-1.56l-0.36,2.4H100.79z M104.15,14.3h1.08l-0.54-4.48
			L104.15,14.3z"/>
		<path class="st0" d="M109.75,18.39v-12h2.08l2.19,5.14V6.39h2.42v12h-2l-2.18-5.64v5.64H109.75z"/>
		<path class="st0" d="M123.51,18.31c-0.48,0.18-1.07,0.26-1.76,0.26c-0.68,0-1.27-0.09-1.75-0.26c-0.48-0.18-0.87-0.44-1.15-0.79
			c-0.29-0.35-0.49-0.76-0.62-1.24c-0.13-0.48-0.19-1.04-0.19-1.68v-4.43c0-0.65,0.06-1.21,0.19-1.68c0.13-0.48,0.33-0.89,0.62-1.24
			c0.28-0.35,0.67-0.61,1.15-0.79c0.48-0.18,1.07-0.26,1.75-0.26c0.68,0,1.27,0.09,1.76,0.26c0.48,0.18,0.87,0.44,1.16,0.79
			c0.29,0.35,0.49,0.76,0.62,1.24c0.13,0.48,0.19,1.04,0.19,1.68v4.43c0,0.65-0.06,1.21-0.19,1.68c-0.13,0.48-0.34,0.89-0.62,1.24
			C124.38,17.88,123.99,18.14,123.51,18.31z M121.75,16.54c0.16,0,0.29-0.04,0.39-0.1c0.1-0.07,0.17-0.17,0.22-0.31
			c0.04-0.13,0.07-0.26,0.08-0.37c0.01-0.11,0.02-0.25,0.02-0.41V9.42c0-0.16-0.01-0.3-0.02-0.41c-0.01-0.11-0.04-0.23-0.08-0.37
			c-0.04-0.13-0.12-0.23-0.22-0.3c-0.1-0.07-0.23-0.1-0.39-0.1c-0.13,0-0.24,0.03-0.33,0.08c-0.09,0.05-0.16,0.11-0.21,0.18
			c-0.05,0.07-0.08,0.17-0.1,0.29c-0.02,0.12-0.04,0.22-0.04,0.3c0,0.08,0,0.19,0,0.33v5.93c0,0.13,0,0.24,0,0.33
			c0,0.08,0.02,0.18,0.04,0.31s0.06,0.22,0.1,0.29c0.05,0.07,0.11,0.13,0.21,0.19C121.51,16.52,121.62,16.54,121.75,16.54z"/>
		<path class="st0" d="M130.36,18.58c-1.19,0-2.06-0.3-2.62-0.9c-0.56-0.6-0.86-1.6-0.89-3l2.49-0.33c0,0.4,0.02,0.73,0.07,1
			c0.04,0.27,0.11,0.48,0.19,0.62c0.08,0.14,0.17,0.24,0.26,0.3c0.09,0.06,0.2,0.09,0.33,0.09c0.33,0,0.49-0.24,0.49-0.71
			c0-0.46-0.1-0.86-0.31-1.19c-0.21-0.33-0.55-0.7-1.01-1.09l-0.76-0.64c-0.28-0.24-0.5-0.45-0.68-0.63
			c-0.18-0.18-0.35-0.41-0.54-0.68c-0.18-0.27-0.31-0.56-0.4-0.89c-0.09-0.32-0.13-0.68-0.13-1.08c0-1.04,0.31-1.84,0.94-2.4
			c0.62-0.56,1.49-0.85,2.59-0.85c1.97,0,2.96,1.17,2.97,3.5l-2.55,0.25c0-0.31,0-0.55-0.01-0.71s-0.03-0.32-0.06-0.48
			c-0.03-0.17-0.09-0.28-0.16-0.35c-0.08-0.07-0.18-0.1-0.3-0.1c-0.18,0-0.31,0.1-0.41,0.28c-0.09,0.18-0.14,0.37-0.14,0.56
			c0,0.1,0.01,0.2,0.03,0.3c0.02,0.1,0.03,0.18,0.05,0.26c0.01,0.08,0.05,0.16,0.09,0.25c0.05,0.09,0.08,0.16,0.11,0.21
			c0.02,0.05,0.07,0.12,0.14,0.21c0.07,0.09,0.12,0.15,0.14,0.18c0.02,0.03,0.08,0.09,0.17,0.18c0.09,0.09,0.15,0.14,0.17,0.16
			c0.02,0.02,0.08,0.07,0.19,0.17c0.11,0.09,0.16,0.15,0.17,0.16l0.69,0.62c0.29,0.27,0.54,0.51,0.75,0.75
			c0.21,0.23,0.4,0.5,0.59,0.8c0.19,0.3,0.33,0.63,0.42,0.98c0.09,0.35,0.14,0.74,0.14,1.15c0,0.86-0.3,1.59-0.89,2.18
			C132.11,18.28,131.33,18.58,130.36,18.58z"/>
		<path class="st0" d="M138.78,18.39v-12h5.62v1.97h-2.68v2.68h2v2.04h-2v3.35h2.71v1.96H138.78z"/>
		<path class="st0" d="M145.59,18.39v-12h2.08l2.19,5.14V6.39h2.42v12h-2l-2.18-5.64v5.64H145.59z"/>
		<path class="st0" d="M157.95,18.39v-12h3.58c0.51,0,0.96,0.03,1.36,0.08c0.39,0.05,0.77,0.15,1.13,0.29
			c0.36,0.14,0.65,0.33,0.88,0.56c0.23,0.23,0.41,0.54,0.55,0.91c0.14,0.37,0.2,0.81,0.2,1.32c0,0.81-0.1,1.45-0.3,1.93
			c-0.2,0.48-0.59,0.87-1.17,1.17l1.64,5.75h-3.08l-1.24-5.3h-0.61v5.3H157.95z M160.89,11.47h0.77c0.48,0,0.82-0.14,1-0.42
			c0.19-0.28,0.28-0.67,0.28-1.18c0-0.49-0.09-0.87-0.26-1.14c-0.18-0.27-0.47-0.4-0.87-0.4h-0.91V11.47z"/>
		<path class="st0" d="M166.66,18.39l2.18-12h3.42l2.16,12h-2.68l-0.38-2.4h-1.56l-0.36,2.4H166.66z M170.02,14.3h1.08l-0.54-4.48
			L170.02,14.3z"/>
		<path class="st0" d="M175.62,18.39v-12h4.34c1.07,0,1.87,0.3,2.41,0.9c0.54,0.6,0.81,1.48,0.81,2.62c0,0.59-0.07,1.1-0.2,1.53
			c-0.13,0.43-0.3,0.77-0.51,1.02c-0.21,0.25-0.48,0.45-0.81,0.6c-0.33,0.15-0.66,0.25-0.98,0.3c-0.33,0.05-0.7,0.07-1.13,0.07
			h-0.99v4.96H175.62z M178.56,11.4h0.93c0.4,0,0.65-0.12,0.77-0.36c0.12-0.24,0.17-0.64,0.17-1.19c0-0.16,0-0.29-0.01-0.41
			c-0.01-0.11-0.03-0.23-0.07-0.37c-0.04-0.14-0.09-0.25-0.16-0.33c-0.07-0.08-0.16-0.16-0.29-0.21c-0.12-0.06-0.27-0.09-0.45-0.09
			h-0.9V11.4z"/>
		<path class="st0" d="M184.47,18.39v-12h4.34c1.07,0,1.87,0.3,2.41,0.9c0.54,0.6,0.81,1.48,0.81,2.62c0,0.59-0.07,1.1-0.2,1.53
			c-0.13,0.43-0.3,0.77-0.51,1.02c-0.21,0.25-0.48,0.45-0.81,0.6c-0.33,0.15-0.66,0.25-0.98,0.3c-0.33,0.05-0.7,0.07-1.13,0.07
			h-0.99v4.96H184.47z M187.41,11.4h0.93c0.4,0,0.65-0.12,0.77-0.36c0.12-0.24,0.17-0.64,0.17-1.19c0-0.16,0-0.29-0.01-0.41
			c-0.01-0.11-0.03-0.23-0.07-0.37c-0.04-0.14-0.09-0.25-0.16-0.33c-0.07-0.08-0.16-0.16-0.29-0.21c-0.12-0.06-0.27-0.09-0.45-0.09
			h-0.9V11.4z"/>
		<path class="st0" d="M193.33,18.39v-12h2.93v12H193.33z"/>
	</g>
	<circle class="st1" cx="13.61" cy="13.61" r="13.61"/>
	<g>
		<path class="st2" d="M6.85,11.33c-0.04,0.13-0.07,0.25-0.1,0.37c-0.04,0.15-0.07,0.29-0.1,0.41c-0.03,0.12-0.05,0.22-0.06,0.29
			c-0.02,0.12-0.11,0.2-0.24,0.23c-0.11,0.02-0.23,0.01-0.36-0.03c-0.12-0.04-0.23-0.11-0.33-0.21c-0.1-0.1-0.15-0.23-0.15-0.38
			c0-0.12,0.03-0.32,0.09-0.59c0.06-0.27,0.15-0.59,0.26-0.95c0.11-0.36,0.25-0.75,0.41-1.17C6.4,8.93,6.55,8.57,6.72,8.21
			C6.77,8.09,6.88,8.01,7.01,8C7.3,7.96,7.56,7.97,7.77,8.02c0.13,0.03,0.2,0.17,0.14,0.29C7.77,8.62,7.65,8.93,7.53,9.22
			C7.44,9.47,7.35,9.71,7.27,9.94C7.26,9.96,7.29,9.98,7.31,9.97c0.11-0.05,0.22-0.11,0.33-0.18c0.18-0.11,0.33-0.25,0.47-0.4
			c0.14-0.15,0.25-0.32,0.34-0.51C8.53,8.7,8.58,8.5,8.58,8.29c0-0.27-0.08-0.47-0.22-0.6C8.2,7.56,7.99,7.5,7.72,7.5
			c-0.28,0-0.55,0.07-0.77,0.2C6.71,7.84,6.51,8,6.34,8.2c-0.17,0.2-0.3,0.41-0.39,0.62c-0.09,0.22-0.14,0.4-0.14,0.56
			c0,0.11-0.06,0.19-0.17,0.23C5.55,9.65,5.45,9.64,5.34,9.6c-0.1-0.04-0.2-0.11-0.28-0.23C4.97,9.26,4.93,9.11,4.93,8.93
			c0-0.16,0.06-0.35,0.19-0.59C5.24,8.12,5.42,7.9,5.66,7.69C5.9,7.48,6.19,7.3,6.54,7.15C6.9,7.01,7.31,6.93,7.76,6.93
			c0.26,0,0.52,0.03,0.77,0.09c0.25,0.06,0.48,0.15,0.68,0.27c0.2,0.12,0.37,0.27,0.49,0.45C9.83,7.93,9.9,8.15,9.9,8.39
			c0,0.26-0.06,0.5-0.17,0.72C9.62,9.32,9.47,9.52,9.28,9.7c-0.19,0.17-0.41,0.33-0.66,0.45c-0.21,0.11-0.43,0.2-0.66,0.27
			c-0.01,0-0.02,0.01-0.02,0.03c0,0.11,0.01,0.23,0.02,0.34c0.01,0.12,0.03,0.25,0.05,0.36c0.02,0.11,0.05,0.22,0.07,0.33
			c0.02,0.08,0.05,0.16,0.07,0.23c0.02,0.05,0.03,0.09,0.05,0.14c0.04,0.09,0.08,0.17,0.12,0.25c0.04,0.08,0.09,0.15,0.13,0.22
			c0.05,0.07,0.09,0.13,0.15,0.18c0.05,0.05,0.1,0.1,0.16,0.15c0.05,0.04,0.11,0.08,0.17,0.12c0.06,0.03,0.11,0.06,0.17,0.09
			c0.06,0.02,0.12,0.04,0.18,0.06c0.06,0.01,0.12,0.02,0.19,0.03c0.06,0,0.13,0,0.2,0c0.07-0.01,0.14-0.02,0.2-0.03
			c0.07-0.02,0.14-0.04,0.21-0.06c0.07-0.03,0.15-0.06,0.22-0.1c0.03-0.01,0.06-0.03,0.08-0.05c0.09-0.05,0.2-0.03,0.27,0.06
			c0.06,0.08,0.05,0.2-0.03,0.27c-0.04,0.03-0.08,0.07-0.12,0.1c-0.09,0.08-0.19,0.15-0.28,0.21c-0.09,0.06-0.17,0.12-0.26,0.16
			c-0.04,0.02-0.09,0.05-0.14,0.07c-0.09,0.05-0.18,0.08-0.27,0.12c-0.09,0.03-0.18,0.06-0.26,0.08c-0.09,0.02-0.17,0.04-0.26,0.04
			c-0.06,0.01-0.12,0.01-0.18,0.01c-0.02,0-0.05,0-0.07,0c-0.08,0-0.16-0.01-0.24-0.03c-0.04-0.01-0.08-0.02-0.12-0.03
			c-0.04-0.01-0.08-0.02-0.11-0.04c-0.07-0.03-0.15-0.06-0.22-0.1c-0.07-0.04-0.14-0.08-0.2-0.13c-0.05-0.04-0.1-0.08-0.15-0.13
			c-0.06-0.05-0.11-0.12-0.17-0.18c-0.05-0.06-0.1-0.13-0.15-0.21c-0.05-0.07-0.09-0.15-0.13-0.23c-0.04-0.08-0.08-0.16-0.12-0.25
			c-0.03-0.09-0.07-0.18-0.1-0.27C7.05,12.13,7.02,12.03,7,11.93c-0.02-0.1-0.04-0.21-0.06-0.31c-0.01-0.09-0.03-0.19-0.04-0.29
			C6.9,11.3,6.85,11.3,6.85,11.33"/>
		<path class="st2" d="M22.3,7.54c0,0.42-0.34,0.77-0.77,0.77c-0.42,0-0.77-0.34-0.77-0.77c0-0.42,0.34-0.77,0.77-0.77
			C21.96,6.77,22.3,7.12,22.3,7.54"/>
		<path class="st2" d="M22.13,10.65c-0.04-0.06-0.11-0.1-0.18-0.1c-0.07,0-0.13,0.03-0.17,0.09c-0.05,0.07-0.1,0.14-0.17,0.23
			c-0.07,0.1-0.15,0.19-0.23,0.28c-0.08,0.09-0.16,0.16-0.23,0.22c-0.08,0.06-0.13,0.08-0.15,0.08c-0.02,0-0.06,0-0.06-0.1
			c-0.01-0.1,0.01-0.23,0.04-0.39c0.04-0.16,0.1-0.34,0.17-0.54c0.07-0.2,0.15-0.39,0.22-0.56c0.08-0.18,0.14-0.33,0.2-0.46
			c0.06-0.13,0.09-0.21,0.11-0.25c0.05-0.11,0.03-0.21-0.05-0.3c-0.07-0.08-0.17-0.14-0.28-0.17c-0.11-0.03-0.24-0.03-0.37-0.01
			c-0.14,0.03-0.25,0.11-0.33,0.24c-0.07,0.11-0.16,0.29-0.27,0.53c-0.11,0.24-0.21,0.5-0.31,0.78c-0.06,0.17-0.11,0.35-0.16,0.52
			c-0.08,0.29-0.25,0.55-0.49,0.74c-0.08,0.07-0.17,0.13-0.26,0.19c-0.04,0.03-0.08,0.05-0.12,0.07c-0.01,0.01-0.03-0.01-0.02-0.02
			c0.07-0.09,0.14-0.19,0.21-0.3c0.14-0.22,0.27-0.49,0.38-0.79c0.12-0.32,0.19-0.61,0.22-0.87c0.03-0.26,0.02-0.49-0.03-0.67
			c-0.05-0.19-0.14-0.34-0.26-0.45c-0.13-0.11-0.28-0.17-0.46-0.17c-0.21,0-0.41,0.06-0.58,0.17c-0.12,0.08-0.23,0.16-0.33,0.25
			c-0.01,0.01-0.02,0.01-0.02,0c-0.02-0.04-0.05-0.07-0.09-0.1c-0.08-0.07-0.18-0.12-0.3-0.14c-0.12-0.02-0.23-0.01-0.35,0.02
			c-0.12,0.04-0.21,0.12-0.27,0.25c-0.11,0.24-0.23,0.52-0.35,0.83c-0.12,0.31-0.24,0.64-0.35,0.96c-0.01,0.04-0.02,0.07-0.04,0.11
			c-0.09,0.28-0.27,0.53-0.5,0.71c-0.06,0.05-0.13,0.09-0.19,0.14c-0.04,0.03-0.08,0.05-0.12,0.07c-0.01,0.01-0.03-0.01-0.02-0.02
			c0.07-0.09,0.14-0.19,0.21-0.3c0.14-0.22,0.27-0.49,0.38-0.79c0.12-0.32,0.19-0.61,0.22-0.87c0.03-0.26,0.02-0.49-0.03-0.67
			c-0.05-0.19-0.14-0.34-0.26-0.45c-0.13-0.11-0.28-0.17-0.46-0.17c-0.21,0-0.41,0.06-0.58,0.17C14.91,8.73,14.8,8.81,14.7,8.9
			c-0.01,0.01-0.02,0.01-0.02,0c-0.02-0.04-0.05-0.07-0.09-0.1c-0.08-0.07-0.18-0.12-0.3-0.14c-0.12-0.02-0.23-0.01-0.35,0.02
			c-0.12,0.04-0.21,0.12-0.27,0.25c-0.11,0.24-0.23,0.52-0.35,0.83c-0.11,0.29-0.22,0.59-0.33,0.9c-0.08,0.23-0.2,0.42-0.37,0.59
			c-0.05,0.04-0.09,0.08-0.13,0.12c-0.08,0.06-0.13,0.08-0.15,0.08c-0.02,0-0.06,0-0.06-0.1c-0.01-0.1,0.01-0.23,0.04-0.39
			c0.04-0.16,0.1-0.34,0.17-0.54c0.07-0.2,0.15-0.38,0.22-0.56c0.07-0.18,0.14-0.33,0.2-0.46c0.06-0.13,0.09-0.21,0.11-0.25
			c0.05-0.11,0.03-0.21-0.05-0.3c-0.07-0.08-0.17-0.14-0.29-0.17c-0.12-0.03-0.24-0.03-0.37-0.01c-0.14,0.03-0.24,0.11-0.32,0.24
			C11.97,8.94,11.96,8.97,11.94,9c-0.01,0.01-0.02,0.01-0.03,0c-0.01-0.07-0.04-0.14-0.07-0.2c-0.05-0.09-0.12-0.17-0.22-0.22
			c-0.1-0.06-0.22-0.09-0.36-0.09c-0.34,0-0.69,0.16-1.03,0.47c-0.33,0.3-0.61,0.79-0.82,1.44c-0.1,0.31-0.16,0.61-0.17,0.87
			c-0.02,0.26,0.01,0.49,0.06,0.67c0.06,0.19,0.15,0.34,0.28,0.45c0.13,0.11,0.29,0.16,0.47,0.16c0.13,0,0.26-0.02,0.38-0.07
			c0.11-0.04,0.22-0.1,0.31-0.17c0.07-0.05,0.14-0.11,0.2-0.17c0.04-0.05,0.12-0.03,0.14,0.03c0.02,0.07,0.05,0.13,0.08,0.18
			c0.09,0.13,0.23,0.2,0.42,0.2c0.21,0,0.42-0.08,0.63-0.23c0.1-0.07,0.19-0.15,0.28-0.23c0.02-0.02,0.05,0,0.04,0.03
			c-0.05,0.18-0.1,0.34-0.14,0.5c-0.07,0.26-0.13,0.48-0.18,0.66c-0.06,0.24-0.07,0.31-0.07,0.34c0,0.15,0.05,0.28,0.14,0.38
			c0.09,0.1,0.19,0.17,0.3,0.21c0.07,0.03,0.15,0.04,0.22,0.04c0.04,0,0.08,0,0.11-0.01c0.08-0.02,0.19-0.07,0.22-0.23l0,0
			c0.01-0.08,0.03-0.19,0.07-0.33c0.03-0.14,0.08-0.3,0.12-0.48c0.05-0.17,0.1-0.37,0.17-0.59c0.03-0.1,0.06-0.21,0.1-0.33
			c0.01-0.02,0.04-0.03,0.05-0.01c0.02,0.03,0.03,0.05,0.05,0.08c0.1,0.14,0.27,0.21,0.49,0.21c0.04,0,0.09,0,0.13,0h0
			c0.33,0,0.64-0.06,0.92-0.17c0.27-0.11,0.51-0.24,0.73-0.39c0.02-0.01,0.05,0.01,0.04,0.03c-0.06,0.21-0.12,0.4-0.17,0.58
			c-0.07,0.26-0.13,0.49-0.18,0.66c-0.06,0.24-0.07,0.31-0.07,0.34c0,0.15,0.05,0.28,0.14,0.38c0.09,0.1,0.19,0.17,0.3,0.21
			c0.07,0.03,0.15,0.04,0.22,0.04c0.04,0,0.08,0,0.11-0.01c0.08-0.02,0.19-0.07,0.22-0.23l0,0c0.01-0.08,0.03-0.19,0.07-0.33
			c0.03-0.14,0.08-0.3,0.12-0.48c0.05-0.18,0.1-0.37,0.17-0.59c0.03-0.1,0.06-0.21,0.1-0.33c0.01-0.02,0.04-0.03,0.05-0.01
			c0.02,0.03,0.03,0.05,0.05,0.08c0.1,0.14,0.27,0.21,0.49,0.21c0.04,0,0.09,0,0.13,0h0c0.33,0,0.64-0.06,0.92-0.17
			c0.31-0.12,0.6-0.28,0.84-0.46c0.04-0.03,0.08-0.06,0.12-0.1c0.02-0.01,0.05,0,0.04,0.02c0,0.01,0,0.02,0,0.03
			c0,0.2,0.04,0.36,0.12,0.47c0.09,0.13,0.23,0.2,0.42,0.2c0.21,0,0.42-0.08,0.63-0.23c0.2-0.15,0.39-0.32,0.56-0.51
			c0.17-0.19,0.32-0.38,0.44-0.57c0.13-0.19,0.21-0.32,0.26-0.39C22.16,10.77,22.17,10.7,22.13,10.65 M11.48,9.64
			c-0.01,0.14-0.04,0.29-0.09,0.47c-0.04,0.17-0.1,0.35-0.17,0.54C11.15,10.83,11.08,11,11,11.16c-0.08,0.15-0.16,0.28-0.23,0.39
			c-0.08,0.1-0.15,0.18-0.21,0.23c-0.05,0.04-0.07,0.04-0.08,0.04c0,0-0.01,0-0.01,0c-0.01,0-0.04-0.02-0.05-0.12
			c-0.01-0.09-0.02-0.2,0-0.33c0.01-0.14,0.04-0.29,0.08-0.46c0.04-0.17,0.1-0.35,0.17-0.54c0.07-0.19,0.15-0.36,0.23-0.51
			c0.08-0.15,0.16-0.29,0.23-0.39c0.08-0.1,0.15-0.18,0.21-0.23c0.05-0.04,0.07-0.04,0.08-0.04c0,0,0.01,0,0.01,0
			c0.01,0,0.04,0.03,0.06,0.12C11.5,9.4,11.5,9.51,11.48,9.64 M15.21,9.65c-0.02,0.14-0.06,0.29-0.11,0.46
			c-0.05,0.17-0.12,0.35-0.2,0.54c-0.08,0.19-0.17,0.36-0.26,0.52c-0.09,0.15-0.17,0.29-0.26,0.4c-0.08,0.1-0.16,0.18-0.22,0.23
			c-0.05,0.04-0.08,0.04-0.09,0.04c0,0-0.01,0-0.01,0c-0.01,0-0.04-0.02-0.05-0.12c-0.01-0.08-0.01-0.2,0.02-0.33
			c0.02-0.14,0.06-0.3,0.11-0.47c0.05-0.17,0.12-0.35,0.2-0.54c0.08-0.19,0.16-0.36,0.25-0.51c0.09-0.16,0.18-0.29,0.26-0.39
			c0.08-0.1,0.16-0.18,0.23-0.23c0.05-0.04,0.08-0.04,0.09-0.04c0,0,0.01,0,0.01,0c0.01,0,0.04,0.02,0.05,0.12
			C15.24,9.41,15.23,9.52,15.21,9.65 M18.66,9.65c-0.02,0.14-0.06,0.29-0.11,0.46c-0.05,0.17-0.12,0.35-0.2,0.54
			c-0.08,0.19-0.17,0.36-0.26,0.52c-0.09,0.15-0.17,0.29-0.26,0.4c-0.08,0.11-0.16,0.18-0.22,0.23c-0.05,0.04-0.08,0.04-0.09,0.04
			c0,0-0.01,0-0.01,0c-0.01,0-0.04-0.02-0.05-0.12c-0.01-0.08-0.01-0.2,0.02-0.33c0.02-0.14,0.06-0.3,0.11-0.47
			c0.05-0.17,0.12-0.35,0.2-0.54c0.08-0.18,0.16-0.36,0.25-0.51c0.09-0.16,0.18-0.29,0.26-0.39c0.08-0.1,0.16-0.18,0.22-0.23
			c0.05-0.04,0.08-0.04,0.09-0.04c0,0,0.01,0,0.01,0c0.01,0,0.04,0.02,0.05,0.12C18.68,9.41,18.68,9.52,18.66,9.65"/>
		<path class="st2" d="M22.13,16.7c-0.92,0.81-1.74,0.86-2.72,0.13c-0.45-0.33-0.85-0.73-1.31-1.06c-0.35-0.26-0.72-0.51-1.12-0.67
			c-0.69-0.27-1.39-0.18-2.02,0.2c-0.43,0.26-0.82,0.58-1.22,0.89c-0.06,0.04-0.1,0.07-0.14,0.06c-0.04,0-0.08-0.02-0.14-0.06
			c-0.4-0.31-0.79-0.63-1.22-0.89c-0.63-0.38-1.33-0.48-2.02-0.2c-0.4,0.16-0.77,0.41-1.12,0.67c-0.45,0.33-0.86,0.72-1.31,1.06
			c-0.98,0.72-1.8,0.67-2.72-0.13c-0.08-0.07-0.15-0.13-0.23-0.2c0.14,0.76,0.43,1.44,0.87,2.05c0.56,0.79,1.29,1.35,2.2,1.66
			c2.14,0.72,4.85-0.29,5.67-2.19c0.83,1.9,3.53,2.91,5.67,2.19c0.92-0.31,1.65-0.87,2.2-1.66c0.44-0.62,0.73-1.3,0.87-2.05
			C22.28,16.57,22.21,16.64,22.13,16.7"/>
	</g>
</g>
</svg>
